<?xml version="1.0" standalone="no"?>
<!DOCTYPE svg PUBLIC "-//W3C//DTD SVG 20010904//EN"
 "http://www.w3.org/TR/2001/REC-SVG-20010904/DTD/svg10.dtd">
<svg version="1.0" xmlns="http://www.w3.org/2000/svg"
 width="266.000000pt" height="266.000000pt" viewBox="0 0 266.000000 266.000000"
 preserveAspectRatio="xMidYMid meet">
<metadata>
Created by potrace 1.11, written by Peter Selinger 2001-2013
</metadata>
<g transform="translate(0.000000,266.000000) scale(0.100000,-0.100000)"
fill="#000000" stroke="none">
<path d="M1209 2383 c-24 -8 -52 -16 -61 -18 -10 -2 -37 -15 -62 -30 -154 -90
-246 -244 -251 -420 -3 -101 8 -143 40 -151 26 -6 85 -12 85 -8 0 2 -4 14 -10
29 -31 81 -18 211 31 306 32 64 111 137 187 172 60 28 76 31 162 31 119 0 183
-23 262 -94 103 -92 139 -176 134 -314 -1 -50 -9 -103 -16 -119 -7 -15 -11
-29 -8 -32 3 -3 28 0 56 6 63 15 72 35 72 154 0 140 -50 262 -148 360 -120
120 -323 175 -473 128z"/>
<path d="M300 2365 c-143 -29 -220 -89 -220 -173 0 -63 71 -166 161 -235 53
-40 57 -33 11 17 -170 185 -141 314 88 387 65 20 50 22 -40 4z"/>
<path d="M2280 2377 c3 -3 32 -12 64 -21 109 -28 186 -100 186 -175 0 -38 -52
-137 -98 -188 -65 -70 -69 -78 -22 -46 111 76 187 190 177 267 -9 67 -102 134
-213 151 -16 3 -45 8 -64 11 -19 3 -33 4 -30 1z"/>
<path d="M735 2281 c-16 -10 -39 -28 -49 -40 -27 -29 -86 -250 -79 -292 12
-79 52 -119 151 -153 64 -21 73 -22 66 -8 -11 28 -14 181 -4 187 6 4 8 10 5
14 -5 10 23 100 38 119 5 6 6 12 2 12 -4 0 14 30 40 66 26 36 45 67 43 68 -11
10 -136 46 -157 46 -14 0 -39 -8 -56 -19z"/>
<path d="M1775 2278 c-33 -11 -61 -22 -63 -23 -2 -2 13 -24 32 -50 78 -101
112 -215 103 -341 l-6 -82 47 13 c91 25 122 46 151 103 15 29 16 100 3 143 -6
19 -21 68 -33 109 -24 85 -55 125 -108 140 -47 13 -55 12 -126 -12z"/>
<path d="M528 2273 c7 -3 16 -2 19 1 4 3 -2 6 -13 5 -11 0 -14 -3 -6 -6z"/>
<path d="M2130 2276 c0 -2 23 -12 51 -21 29 -10 69 -33 90 -52 77 -70 60 -143
-60 -255 l-76 -71 54 29 c30 16 80 54 112 85 115 110 92 205 -61 258 -65 22
-110 33 -110 27z"/>
<path d="M430 2248 c-92 -34 -128 -70 -135 -133 -3 -22 28 -82 58 -114 33 -34
133 -106 164 -118 10 -4 0 8 -22 27 -181 154 -190 256 -30 334 61 30 40 33
-35 4z"/>
<path d="M2490 1929 c-175 -88 -515 -213 -640 -236 -14 -2 -50 -10 -80 -18
-48 -12 -82 -19 -210 -41 -14 -3 -36 -7 -50 -10 -14 -2 -50 -7 -80 -10 -30 -4
-57 -10 -60 -14 -4 -7 -5 -1330 -1 -1337 0 -2 18 6 39 16 214 110 727 283
1057 357 44 10 83 19 88 20 4 1 14 2 22 3 13 1 14 19 8 134 -10 171 -10 918 0
1070 4 64 6 116 5 116 -2 -1 -46 -23 -98 -50z"/>
<path d="M88 1833 c9 -181 9 -828 0 -1018 l-7 -150 216 -53 c316 -77 674 -200
931 -318 29 -13 58 -24 65 -24 10 0 13 137 13 665 -1 660 -1 666 -21 670 -11
3 -36 7 -55 9 -62 8 -284 49 -380 71 -189 43 -461 141 -654 236 -55 27 -103
49 -107 49 -4 0 -5 -62 -1 -137z"/>
</g>
</svg>
